<?xml version="1.0" encoding="utf-8"?>
<!-- Generator: Adobe Illustrator 27.1.1, SVG Export Plug-In . SVG Version: 6.00 Build 0)  -->
<svg version="1.1" id="Слой_1" xmlns="http://www.w3.org/2000/svg" xmlns:xlink="http://www.w3.org/1999/xlink" x="0px" y="0px"
	 viewBox="0 0 512 512" style="enable-background:new 0 0 512 512;" xml:space="preserve">
<style type="text/css">
	.st0{fill:#1D4AED;}
	.st1{fill:#FFFFFF;}
</style>
<path class="st0" d="M412,512H100C44.8,512,0,467.2,0,412V100C0,44.8,44.8,0,100,0h312c55.2,0,100,44.8,100,100v312
	C512,467.2,467.2,512,412,512z"/>
<g>
	<path class="st1" d="M134.5,384.2c-32.4,0-56.6-7.2-72.8-21.6c-16.2-14.4-25.3-34.2-27.4-59.4H79c1.6,14.4,6.5,25.7,14.5,33.9
		s21.7,12.2,41,12.2c14,0,25.3-3.5,34.1-10.5c8.7-7,13.1-16.3,13.1-27.9c0-11.6-3.6-20.1-10.8-25.5c-7.2-5.4-20.9-9.7-41.2-12.9
		c-31-4.4-53.4-12-67.2-22.7s-20.8-27.5-20.8-50.3c0-20.7,8-37.8,24.1-51.3c16.1-13.5,37-20.3,62.9-20.3c55.2,0,85.4,24.1,90.8,72.3
		h-42.6c-2.3-13.3-7.3-22.8-14.8-28.6c-7.6-5.8-18.7-8.7-33.3-8.7c-13.7,0-24.3,3-31.8,8.9s-11.2,13.9-11.2,23.9
		c0,10.9,3.4,19,10.3,24.3c6.9,5.2,20.7,9.4,41.4,12.4c31.2,4.4,53.8,12,67.9,22.7c14.1,10.7,21.1,28.1,21.1,52
		c0,21.9-8.6,40.2-25.7,55C183.5,376.8,161.5,384.2,134.5,384.2z"/>
	<path class="st1" d="M272.8,131h75.8c42.1,0,74.2,11,96.2,33s33,51.8,33,89.2v3.1c0,37.7-11.1,67.9-33.2,90.4
		c-22.1,22.6-54.4,33.9-96.7,33.9h-75.1L272.8,131L272.8,131z M346.5,344c27.7,0,48.4-7.5,62.2-22.5c13.7-15,20.6-36.6,20.6-64.8
		v-2.8c0-57.5-27.7-86.3-83.1-86.3h-26.9V344H346.5z"/>
</g>
</svg>
