<?xml version="1.0" encoding="utf-8"?>
<!-- Generator: Adobe Illustrator 27.1.1, SVG Export Plug-In . SVG Version: 6.00 Build 0)  -->
<svg version="1.1" id="Слой_1" xmlns="http://www.w3.org/2000/svg" xmlns:xlink="http://www.w3.org/1999/xlink" x="0px" y="0px"
	 viewBox="0 0 512 512" style="enable-background:new 0 0 512 512;" xml:space="preserve">
<style type="text/css">
	.st0{fill:none;stroke:#000000;stroke-width:25;stroke-linecap:round;stroke-miterlimit:10;}
	.st1{fill:none;stroke:#000000;stroke-width:25;stroke-miterlimit:10;}
</style>
<path class="st0" d="M389.38,36.74v53.93c0,3.37-3.77,5.35-6.55,3.45L314,43.51c-33.19-22.71-73.81-23.92-106.14,0L82.62,137.65
	c-41.58,29.41-53.24,51.72-54.76,102.15l0.49,146.63c0,56.66,42.9,99.56,99.56,99.56h264.84c50.3,0,91.12-40.7,91.25-91.01
	c0.18-68.23,0.27-154.07-0.32-179.76c-1.01-44.62-36.51-66.93-36.51-66.93"/>
<circle cx="219.26" cy="258.1" r="23.58"/>
<circle cx="219.26" cy="334.12" r="23.58"/>
<circle cx="297.1" cy="334.12" r="23.58"/>
<circle cx="297.1" cy="258.1" r="23.58"/>
</svg>
