<?xml version="1.0" encoding="utf-8"?>
<!-- Generator: Adobe Illustrator 27.1.1, SVG Export Plug-In . SVG Version: 6.00 Build 0)  -->
<svg version="1.1" id="Слой_1" xmlns="http://www.w3.org/2000/svg" xmlns:xlink="http://www.w3.org/1999/xlink" x="0px" y="0px"
	 viewBox="0 0 512 512" style="enable-background:new 0 0 512 512;" xml:space="preserve">
<style type="text/css">
	.st0{fill:none;stroke:#000000;stroke-width:25;stroke-linecap:round;stroke-miterlimit:10;}
	.st1{fill:none;stroke:#000000;stroke-width:25;stroke-miterlimit:10;}
</style>
<path class="st0" d="M-1206.62,36.74v53.93c0,3.37-3.77,5.35-6.55,3.45L-1282,43.51c-33.19-22.71-73.81-23.92-106.14,0
	l-125.24,94.14c-41.58,29.41-53.24,51.72-54.76,102.15l0.49,146.63c0,56.66,42.9,99.56,99.56,99.56h264.84
	c50.3,0,91.12-40.7,91.25-91.01c0.18-68.23,0.27-154.07-0.32-179.76c-1.01-44.62-36.51-66.93-36.51-66.93"/>
<circle cx="-1376.73" cy="258.1" r="23.58"/>
<circle cx="-1376.73" cy="334.12" r="23.58"/>
<circle cx="-1298.9" cy="334.12" r="23.58"/>
<circle cx="-1298.9" cy="258.1" r="23.58"/>
<circle class="st1" cx="-767.25" cy="219.3" r="188.75"/>
<line class="st0" x1="-1037.5" y1="485.64" x2="-950.14" y2="397.27"/>
<g>
	<path class="st1" d="M-388.44,443.91c34.48,22.46,75.59,35.58,119.76,35.78c119.55,0.54,218.69-94.86,222.5-214.34
		c4.04-126.7-98.3-230.5-224.47-228.83c-121.81,1.61-220.05,102.47-218.59,224.28c0.39,32.4,7.73,63.13,20.6,90.76
		c4.72,10.14,4.49,21.9-0.54,31.89l-34.56,68.74c-4.91,9.77,4.74,20.48,14.96,16.61l73.56-27.84
		C-406.33,437.59-396.4,438.73-388.44,443.91z"/>
	<path class="st1" d="M-228.45,236.15c-5.21,4.65-12.93,5.11-18.66,1.11l-40.99-28.63c-13.11-8.43-30.56-4.75-39.15,8.25
		l-46.28,70.05c-7.61,11.52-4.86,26.97,6.25,35.16l1.5,1.1c10.09,7.44,24.03,6.69,33.28-1.77l32.93-30.14
		c2.63-2.1,6.34-2.18,9.06-0.2l45.5,33.03c11.42,7.35,26.64,3.89,33.77-7.67l49.72-80.68c6.82-9.58,4.48-22.89-5.19-29.57
		l-5.31-3.66c-8.99-6.21-21.19-4.83-28.57,3.22L-228.45,236.15z"/>
</g>
<path class="st1" d="M477.2,498.37h-459v-46.11c0-83.44,67.64-151.09,151.09-151.09h156.24c83.77,0,151.67,67.91,151.67,151.67
	V498.37z"/>
<circle class="st1" cx="247.7" cy="141.72" r="111.07"/>
</svg>
