<?xml version="1.0" encoding="utf-8"?>
<!-- Generator: Adobe Illustrator 27.1.1, SVG Export Plug-In . SVG Version: 6.00 Build 0)  -->
<svg version="1.1" id="Слой_1" xmlns="http://www.w3.org/2000/svg" xmlns:xlink="http://www.w3.org/1999/xlink" x="0px" y="0px"
	 viewBox="0 0 512 512" style="enable-background:new 0 0 512 512;" xml:space="preserve">
<style type="text/css">
	.st0{fill:none;stroke:#000000;stroke-width:25;stroke-linecap:round;stroke-miterlimit:10;}
	.st1{fill:none;stroke:#000000;stroke-width:25;stroke-miterlimit:10;}
</style>
<g>
	<path class="st1" d="M143.56,443.91c34.48,22.46,75.59,35.58,119.76,35.78c119.55,0.54,218.69-94.86,222.5-214.34
		c4.04-126.7-98.3-230.5-224.47-228.83C139.55,38.12,41.31,138.99,42.76,260.8c0.39,32.4,7.73,63.13,20.6,90.76
		c4.72,10.14,4.49,21.9-0.54,31.89l-34.56,68.74c-4.91,9.77,4.74,20.48,14.96,16.61l73.56-27.84
		C125.67,437.59,135.6,438.73,143.56,443.91z"/>
	<path class="st1" d="M303.55,236.15c-5.21,4.65-12.93,5.11-18.66,1.11l-40.99-28.63c-13.11-8.43-30.56-4.75-39.15,8.25
		l-46.28,70.05c-7.61,11.52-4.86,26.97,6.25,35.16l1.5,1.1c10.09,7.44,24.03,6.69,33.28-1.77l32.93-30.14
		c2.63-2.1,6.34-2.18,9.06-0.2l45.5,33.03c11.42,7.35,26.64,3.89,33.77-7.67l49.72-80.68c6.82-9.58,4.48-22.89-5.19-29.57
		l-5.31-3.66c-8.99-6.21-21.19-4.83-28.57,3.22L303.55,236.15z"/>
</g>
</svg>
