<?xml version="1.0" encoding="utf-8"?>
<!-- Generator: Adobe Illustrator 27.1.1, SVG Export Plug-In . SVG Version: 6.00 Build 0)  -->
<svg version="1.1" id="Слой_1" xmlns="http://www.w3.org/2000/svg" xmlns:xlink="http://www.w3.org/1999/xlink" x="0px" y="0px"
	 viewBox="0 0 512 512" style="enable-background:new 0 0 512 512;" xml:space="preserve">
<style type="text/css">
	.st0{fill:none;stroke:#000000;stroke-width:25;stroke-linecap:round;stroke-miterlimit:10;}
	.st1{fill:#020202;stroke:#000000;stroke-width:25;stroke-linecap:round;stroke-miterlimit:10;}
	.st2{fill:#FFFFFF;}
	.st3{stroke:#000000;stroke-width:25;stroke-miterlimit:10;}
	.st4{fill:#020202;stroke:#000000;stroke-width:25;stroke-miterlimit:10;}
	.st5{fill:#FFFFFF;stroke:#000000;stroke-width:25;stroke-miterlimit:10;}
</style>
<g>
	<path class="st4" d="M143.1,443.9c34.5,22.5,75.6,35.6,119.8,35.8c119.5,0.5,218.7-94.9,222.5-214.3
		c4-126.7-98.3-230.5-224.5-228.8C139.1,38.1,40.8,139,42.3,260.8c0.4,32.4,7.7,63.1,20.6,90.8c4.7,10.1,4.5,21.9-0.5,31.9
		l-34.6,68.7c-4.9,9.8,4.7,20.5,15,16.6l73.6-27.8C125.2,437.6,135.1,438.7,143.1,443.9z"/>
	<path class="st5" d="M303.1,236.1c-5.2,4.6-12.9,5.1-18.7,1.1l-41-28.6c-13.1-8.4-30.6-4.8-39.1,8.2L158,286.9
		c-7.6,11.5-4.9,27,6.2,35.2l1.5,1.1c10.1,7.4,24,6.7,33.3-1.8l32.9-30.1c2.6-2.1,6.3-2.2,9.1-0.2l45.5,33
		c11.4,7.4,26.6,3.9,33.8-7.7l49.7-80.7c6.8-9.6,4.5-22.9-5.2-29.6l-5.3-3.7c-9-6.2-21.2-4.8-28.6,3.2L303.1,236.1z"/>
</g>
</svg>
