<?xml version="1.0" encoding="utf-8"?>
<!-- Generator: Adobe Illustrator 27.1.1, SVG Export Plug-In . SVG Version: 6.00 Build 0)  -->
<svg version="1.1" id="Слой_1" xmlns="http://www.w3.org/2000/svg" xmlns:xlink="http://www.w3.org/1999/xlink" x="0px" y="0px"
	 viewBox="0 0 512 512" style="enable-background:new 0 0 512 512;" xml:space="preserve">
<style type="text/css">
	.st0{fill:none;stroke:#000000;stroke-width:25;stroke-linecap:round;stroke-miterlimit:10;}
	.st1{fill:#020202;stroke:#000000;stroke-width:25;stroke-linecap:round;stroke-miterlimit:10;}
	.st2{fill:#FFFFFF;}
	.st3{stroke:#000000;stroke-width:25;stroke-miterlimit:10;}
	.st4{fill:#020202;stroke:#000000;stroke-width:25;stroke-miterlimit:10;}
	.st5{fill:#FFFFFF;stroke:#000000;stroke-width:25;stroke-miterlimit:10;}
</style>
<path class="st0" d="M388.9,36.7v53.9c0,3.4-3.8,5.3-6.6,3.4l-68.8-50.6c-33.2-22.7-73.8-23.9-106.1,0L82.1,137.6
	c-41.6,29.4-53.2,51.7-54.8,102.1l0.5,146.6c0,56.7,42.9,99.6,99.6,99.6h264.8c50.3,0,91.1-40.7,91.2-91
	c0.2-68.2,0.3-154.1-0.3-179.8c-1-44.6-36.5-66.9-36.5-66.9"/>
<path class="st1" d="M314,43.5c-33.2-22.7-73.8-23.9-106.1,0L82.6,137.6C41,167.1,29.4,189.4,27.9,239.8l0.5,146.6
	c0,56.7,42.9,99.6,99.6,99.6h264.8c50.3,0,91.1-40.7,91.2-91c0.2-68.2,0.3-154.1-0.3-179.8c-1-44.6-36.5-66.9-36.5-66.9L314,43.5z"
	/>
<circle class="st2" cx="218.8" cy="258.1" r="23.6"/>
<circle class="st2" cx="218.8" cy="334.1" r="23.6"/>
<circle class="st2" cx="296.6" cy="334.1" r="23.6"/>
<circle class="st2" cx="296.6" cy="258.1" r="23.6"/>
</svg>
